<?xml version="1.0" encoding="utf-8"?>
<!-- Generator: Adobe Illustrator 27.4.0, SVG Export Plug-In . SVG Version: 6.00 Build 0)  -->
<svg version="1.1" id="Layer_1" xmlns="http://www.w3.org/2000/svg" xmlns:xlink="http://www.w3.org/1999/xlink" x="0px" y="0px"
	 viewBox="0 0 236 47.5" style="enable-background:new 0 0 236 47.5;" xml:space="preserve">
<style type="text/css">
	.st0{fill:none;stroke:#0D3C65;stroke-width:3;stroke-miterlimit:10;}
	.st1{fill:#0D7624;}
	.st2{fill:#D66E15;}
	.st3{fill:#0D3C65;}
</style>
<polyline class="st0" points="236,46 1.5,46 1.5,44.5 1.5,0.5 "/>
<g>
	<g>
		<path class="st1" d="M21.4,36.5c-1.6,0-3.1-0.3-4.5-1c-1.4-0.7-2.6-1.6-3.6-2.8c-1-1.2-1.8-2.5-2.4-3.9c-0.6-1.5-0.8-2.9-0.8-4.5
			c0-1.6,0.3-3.2,0.8-4.6c0.6-1.5,1.3-2.8,2.3-3.9c1-1.1,2.2-2,3.5-2.7c1.4-0.7,2.8-1,4.5-1c2.4,0,4.3,0.5,5.8,1.5
			c1.5,1,2.6,2.2,3.4,3.8l-1.8,1.2c-0.8-1.5-1.8-2.6-3.1-3.3s-2.7-1.1-4.3-1.1c-1.3,0-2.5,0.3-3.6,0.9c-1.1,0.6-2,1.3-2.8,2.3
			s-1.4,2-1.8,3.2c-0.4,1.2-0.6,2.4-0.6,3.7c0,1.4,0.2,2.6,0.7,3.9c0.5,1.2,1.1,2.3,1.9,3.2c0.8,0.9,1.8,1.7,2.9,2.2
			c1.1,0.5,2.3,0.8,3.6,0.8c1.5,0,2.9-0.4,4.2-1.1c1.3-0.7,2.6-1.9,3.8-3.4v2.5C27.3,35.1,24.6,36.5,21.4,36.5z M29.2,26.3h-5.4
			v-1.8h7.4v11.9h-2V26.3z"/>
		<path class="st1" d="M44.7,20.6c-1.5,0-2.9,0.5-4.1,1.3c-1.2,0.8-2,1.9-2.5,3.4v11h-2.3V18.7H38v4.2c0.6-1.2,1.4-2.3,2.4-3
			c1-0.8,2.1-1.2,3.2-1.3c0.2,0,0.4,0,0.6,0s0.3,0,0.4,0V20.6z"/>
		<path class="st1" d="M55.6,36.7c-1.3,0-2.4-0.2-3.5-0.7c-1.1-0.5-2-1.2-2.8-2c-0.8-0.8-1.4-1.8-1.9-2.9c-0.4-1.1-0.7-2.3-0.7-3.6
			c0-1.6,0.4-3.1,1.1-4.5c0.8-1.4,1.8-2.5,3.1-3.3s2.9-1.2,4.6-1.2c1.7,0,3.3,0.4,4.6,1.2s2.3,1.9,3.1,3.3c0.7,1.4,1.1,2.9,1.1,4.5
			c0,0.2,0,0.4,0,0.5s0,0.3,0,0.4H49.2c0.1,1.3,0.5,2.4,1.1,3.4c0.6,1,1.4,1.8,2.3,2.3c1,0.6,2,0.9,3.1,0.9c1.2,0,2.2-0.3,3.3-0.9
			c1-0.6,1.8-1.4,2.2-2.3l2,0.5c-0.4,0.8-0.9,1.6-1.7,2.3c-0.7,0.7-1.6,1.2-2.6,1.6C57.9,36.5,56.8,36.7,55.6,36.7z M49.1,26.7h13.1
			c-0.1-1.3-0.4-2.4-1-3.4c-0.6-1-1.4-1.7-2.3-2.3s-2-0.8-3.2-0.8c-1.2,0-2.2,0.3-3.2,0.8s-1.7,1.3-2.3,2.3
			C49.5,24.3,49.2,25.4,49.1,26.7z"/>
		<path class="st1" d="M75.8,36.7c-1.3,0-2.4-0.2-3.5-0.7c-1.1-0.5-2-1.2-2.8-2c-0.8-0.8-1.4-1.8-1.9-2.9c-0.4-1.1-0.7-2.3-0.7-3.6
			c0-1.6,0.4-3.1,1.1-4.5c0.8-1.4,1.8-2.5,3.1-3.3s2.9-1.2,4.6-1.2c1.7,0,3.3,0.4,4.6,1.2s2.3,1.9,3.1,3.3c0.7,1.4,1.1,2.9,1.1,4.5
			c0,0.2,0,0.4,0,0.5s0,0.3,0,0.4H69.3c0.1,1.3,0.5,2.4,1.1,3.4c0.6,1,1.4,1.8,2.3,2.3c1,0.6,2,0.9,3.1,0.9c1.2,0,2.2-0.3,3.3-0.9
			c1-0.6,1.8-1.4,2.2-2.3l2,0.5c-0.4,0.8-0.9,1.6-1.7,2.3c-0.7,0.7-1.6,1.2-2.6,1.6C78,36.5,76.9,36.7,75.8,36.7z M69.2,26.7h13.1
			c-0.1-1.3-0.4-2.4-1-3.4c-0.6-1-1.4-1.7-2.3-2.3s-2-0.8-3.2-0.8c-1.2,0-2.2,0.3-3.2,0.8s-1.7,1.3-2.3,2.3
			C69.7,24.3,69.3,25.4,69.2,26.7z"/>
		<path class="st1" d="M103.2,36.3h-2.3v-9.8c0-2.1-0.3-3.6-0.9-4.5c-0.6-1-1.6-1.4-2.9-1.4c-0.9,0-1.8,0.2-2.7,0.7
			c-0.9,0.4-1.7,1-2.3,1.8c-0.7,0.8-1.2,1.6-1.4,2.6v10.8h-2.3V18.7h2.1v4c0.5-0.9,1.1-1.6,1.9-2.2s1.6-1.1,2.6-1.5
			c1-0.4,2-0.5,3-0.5c1,0,1.8,0.2,2.5,0.5c0.7,0.4,1.2,0.9,1.6,1.5c0.4,0.7,0.7,1.5,0.9,2.4c0.2,0.9,0.3,2,0.3,3.1V36.3z"/>
		<path class="st2" d="M123.1,14.3h-8.6v22h-2.4v-22h-8.6v-2.1h19.6V14.3z"/>
		<path class="st2" d="M129.7,36.7c-1.3,0-2.5-0.2-3.6-0.7c-1.1-0.5-2-1.1-2.8-2c-0.8-0.8-1.4-1.8-1.8-2.9c-0.4-1.1-0.6-2.2-0.6-3.5
			c0-1.3,0.2-2.4,0.6-3.5c0.4-1.1,1-2.1,1.8-2.9c0.8-0.8,1.7-1.5,2.8-2c1.1-0.5,2.2-0.7,3.5-0.7s2.4,0.2,3.5,0.7
			c1.1,0.5,2,1.1,2.8,2s1.4,1.8,1.8,2.9c0.4,1.1,0.6,2.3,0.6,3.5c0,1.2-0.2,2.4-0.6,3.5s-1,2.1-1.8,2.9c-0.8,0.8-1.7,1.5-2.8,2
			C132.2,36.4,131,36.7,129.7,36.7z M123.3,27.6c0,1.3,0.3,2.5,0.9,3.6s1.4,1.9,2.3,2.5c1,0.6,2.1,0.9,3.2,0.9
			c1.2,0,2.3-0.3,3.2-0.9c1-0.6,1.8-1.5,2.3-2.6c0.6-1.1,0.9-2.3,0.9-3.6c0-1.3-0.3-2.5-0.9-3.5s-1.4-1.9-2.3-2.6
			c-1-0.6-2.1-0.9-3.2-0.9c-1.2,0-2.3,0.3-3.2,1c-1,0.7-1.8,1.5-2.3,2.6S123.3,26.3,123.3,27.6z"/>
		<path class="st2" d="M150.5,36.7c-1.3,0-2.5-0.2-3.6-0.7c-1.1-0.5-2-1.1-2.8-2c-0.8-0.8-1.4-1.8-1.8-2.9c-0.4-1.1-0.6-2.2-0.6-3.5
			c0-1.3,0.2-2.4,0.6-3.5c0.4-1.1,1-2.1,1.8-2.9c0.8-0.8,1.7-1.5,2.8-2c1.1-0.5,2.2-0.7,3.5-0.7s2.4,0.2,3.5,0.7
			c1.1,0.5,2,1.1,2.8,2s1.4,1.8,1.8,2.9c0.4,1.1,0.6,2.3,0.6,3.5c0,1.2-0.2,2.4-0.6,3.5s-1,2.1-1.8,2.9c-0.8,0.8-1.7,1.5-2.8,2
			C153,36.4,151.8,36.7,150.5,36.7z M144.1,27.6c0,1.3,0.3,2.5,0.9,3.6s1.4,1.9,2.3,2.5c1,0.6,2.1,0.9,3.2,0.9
			c1.2,0,2.3-0.3,3.2-0.9c1-0.6,1.8-1.5,2.3-2.6c0.6-1.1,0.9-2.3,0.9-3.6c0-1.3-0.3-2.5-0.9-3.5s-1.4-1.9-2.3-2.6
			c-1-0.6-2.1-0.9-3.2-0.9c-1.2,0-2.3,0.3-3.2,1c-1,0.7-1.8,1.5-2.3,2.6S144.1,26.3,144.1,27.6z"/>
		<path class="st2" d="M163.9,11.5h2.3v20.9c0,0.9,0.2,1.5,0.5,1.7c0.3,0.3,0.7,0.4,1.2,0.4c0.4,0,0.8,0,1.2-0.1
			c0.4-0.1,0.8-0.2,1.1-0.3l0.4,1.9c-0.4,0.2-1,0.3-1.6,0.4c-0.6,0.1-1.2,0.2-1.6,0.2c-1,0-1.9-0.3-2.5-0.9
			c-0.6-0.6-0.9-1.5-0.9-2.5V11.5z"/>
		<path class="st2" d="M178.2,36.7c-1.5,0-2.8-0.2-4-0.7s-2.3-1.2-3.2-2.2l1-1.6c1,0.9,2,1.6,3,2c1,0.4,2.1,0.6,3.2,0.6
			c1.4,0,2.5-0.3,3.4-0.8c0.9-0.6,1.3-1.3,1.3-2.4c0-0.7-0.2-1.2-0.6-1.6c-0.4-0.4-1-0.7-1.8-0.9c-0.8-0.2-1.7-0.5-2.8-0.8
			c-1.2-0.3-2.2-0.7-3.1-1.1c-0.8-0.4-1.5-0.8-1.9-1.4c-0.4-0.6-0.6-1.3-0.6-2.2c0-1.1,0.3-2.1,0.9-2.9c0.6-0.8,1.4-1.3,2.4-1.7
			c1-0.4,2.1-0.6,3.4-0.6c1.4,0,2.6,0.2,3.6,0.6c1,0.4,1.9,1,2.6,1.8l-1.1,1.6c-0.6-0.7-1.4-1.3-2.3-1.6c-0.9-0.4-1.8-0.5-2.9-0.5
			c-0.7,0-1.4,0.1-2.1,0.3c-0.7,0.2-1.2,0.5-1.6,0.9c-0.4,0.4-0.6,1-0.6,1.8c0,0.6,0.2,1.1,0.5,1.5c0.3,0.3,0.8,0.6,1.4,0.9
			c0.6,0.2,1.4,0.5,2.3,0.8c1.3,0.4,2.5,0.7,3.5,1.1c1,0.4,1.8,0.9,2.3,1.4s0.8,1.4,0.8,2.5c0,1.6-0.6,2.9-1.9,3.9
			C181.9,36.2,180.2,36.7,178.2,36.7z"/>
	</g>
</g>
<g transform="translate(0.000000,1262.000000) scale(0.100000,-0.100000)">
	<path class="st3" d="M2160.8,12465.8l-8.4-7l-6.4-7.9l-6.4-7.9l-43.1-43.2c-23.7-23.7-43.2-43.1-43.3-43.1
		c-0.4,0.1-52,50.2-54.2,52.5c-4.6,5.1-7.8,10.3-9.9,16.6c-0.8,2.4-1.7,5.9-2.9,11.5c-2,8.8-3.7,13.3-7,18c-1.6,2.4-4.4,5.5-6,6.7
		c-2.9,2.2-7.8,4-13.3,4.9c-2.4,0.4-3.8,0.5-8.1,0.5c-4.5,0-5.6-0.1-7.8-0.5c-3.9-0.7-6.1-1.6-6.4-2.5c-0.3-1,3.3-3.6,12.8-9.2
		c6.4-3.8,6.9-4.1,7.3-5.1c1-2.5,1.3-9.6,0.5-13.1c-0.7-2.9-1.4-4.4-3.1-6c-2.7-2.6-5.9-4.4-9.6-5.2l-1.9-0.4l-0.9,0.5
		c-1.2,0.6-3.3,2-7.3,5c-6.8,5-9.9,6.8-11.4,6.7c-1.1-0.1-1.4-0.6-1.2-2.7c0.4-5.7,6.4-15.7,14.2-23.6c2.6-2.6,4.6-3.9,8.3-5.3
		c3.7-1.4,7.8-2.2,17-3.4c9-1.2,13.3-2.2,17.5-4.1c3.7-1.7,3.1-1.1,31.8-29.8l26.9-26.9l-2.7-2.7l-2.7-2.7l-3.1,2.7
		c-2.9,2.5-3.2,2.8-4.7,3.3c-0.9,0.3-2.9,1-4.6,1.6l-2.9,1l-4.1-4.1l-4.1-4.1l0.2-1.2c0.4-2.3-0.2-4.9-1.8-7.6
		c-0.8-1.3-4.2-4.9-6.5-6.8c-4.7-3.8-10.1-6.4-13.1-6.4h-0.9l-32.9-32.9c-23.6-23.5-33-33.1-33.3-33.7c-1.7-3.7-1.1-10.1,1.3-14.9
		c2.5-4.9,7.2-10.4,12.1-13.9c2.1-1.5,5.7-3.4,7.8-4.1c4.1-1.3,8.9-1.3,11.8,0c0.6,0.3,10.3,9.8,33.7,33.3l32.9,32.9l0.1,1.1
		c0.3,2.7,1.6,5.9,3.7,9.1c1.8,2.7,3.2,4.5,6,7.2c2.8,2.8,4.5,3.9,7.1,4.6c1.5,0.4,3.7,0.4,4.5,0.1c0.6-0.2,0.7-0.1,4.7,4l4.1,4.2
		l-1.6,4.6l-1.6,4.6l-2.1,2.4c-1.1,1.3-2.4,2.7-2.7,3.1l-0.6,0.7l2.6,2.6l2.6,2.6l41.4-41.4c22.8-22.8,41.8-41.9,42.2-42.5
		c2-2.7,3-4.8,5.9-12c2.4-6.1,3.5-8.5,5.4-11.3c3.2-4.8,7.6-8.2,12.4-9.8c2.5-0.8,3.8-1,6.4-1c5,0,9.6,2,13.7,5.9
		c7.4,7.1,9.2,16.6,4.8,25.6c-2.6,5.3-6.6,8.6-14.2,11.6c-1.3,0.5-4.1,1.5-6.2,2.3c-6.5,2.3-9.7,3.8-12.3,5.8
		c-1,0.7-74.1,71.4-82.6,79.8l-1.9,1.9l42.6,42.6l42.6,42.6l8.6,7l8.7,7l6.9,8.4l6.9,8.4l-4.6,4.6c-2.6,2.6-4.7,4.7-4.8,4.6
		C2169.3,12472.8,2165.4,12469.7,2160.8,12465.8z M2159.2,12250.2c0.8-0.4,1.7-0.7,1.8-0.7c0.1,0,1.1,0.4,2,0.8s1.9,0.8,1.9,0.8
		c0.1,0,0.8-0.8,1.5-1.8l1.4-1.8l2-0.1c1.1-0.1,2.1-0.2,2.3-0.3c0.1-0.1,0.3-1,0.3-2c0.1-1,0.2-2,0.2-2.2c0.1-0.2,0.9-0.9,1.8-1.6
		c1-0.7,1.7-1.3,1.7-1.4c0-0.1-0.4-1-0.8-2c-0.5-1-0.8-1.9-0.8-2c0-0.1,0.4-1,0.8-2c0.5-1,0.8-1.9,0.8-2c0-0.1-0.8-0.8-1.7-1.5
		c-1-0.7-1.7-1.3-1.8-1.3c0-0.1-0.1-1.1-0.2-2.3l-0.2-2.1l-2.2-0.2c-1.2-0.1-2.3-0.3-2.4-0.4c-0.1-0.1-0.7-0.9-1.3-1.7
		c-0.6-0.9-1.2-1.6-1.4-1.6c-0.1,0-1,0.4-2,0.8c-2.1,0.9-1.9,0.9-4.4-0.2l-1.7-0.8l-1.3,1.8c-1.4,2-1.1,1.8-4.4,2.2l-1.4,0.1
		l-0.2,2.1c-0.1,1.2-0.2,2.2-0.2,2.3c0,0.1-0.8,0.7-1.8,1.3c-0.9,0.7-1.7,1.4-1.7,1.5c0,0.1,0.4,1.1,0.8,2c0.5,1,0.8,1.9,0.8,2
		c0,0.1-0.4,1-0.8,2s-0.8,2-0.7,2.1c0,0.1,0.8,0.8,1.7,1.4c1.8,1.3,1.8,1.2,2,3.9c0.1,0.9,0.2,1.7,0.3,1.8c0.1,0.1,1.1,0.2,2.3,0.3
		l2,0.1l0.8,1.1c1.8,2.5,1.8,2.5,2.3,2.4C2157.5,12250.9,2158.4,12250.6,2159.2,12250.2z"/>
</g>
</svg>
