<svg version="1.1" id="Layer_1" xmlns="http://www.w3.org/2000/svg" x="0" y="0" viewBox="0 0 236 47.5" style="enable-background:new 0 0 236 47.5" xml:space="preserve">
    <style>
        .st1{fill:#0d7624}.st2{fill:#d66e15}
    </style>
    <path style="fill:none;stroke:#0d3c65;stroke-width:3;stroke-miterlimit:10" d="M236 46H1.5V.5"/>
    <path class="st1" d="M21.4 36.5c-1.6 0-3.1-.3-4.5-1s-2.6-1.6-3.6-2.8c-1-1.2-1.8-2.5-2.4-3.9-.6-1.5-.8-2.9-.8-4.5s.3-3.2.8-4.6c.6-1.5 1.3-2.8 2.3-3.9 1-1.1 2.2-2 3.5-2.7 1.4-.7 2.8-1 4.5-1 2.4 0 4.3.5 5.8 1.5s2.6 2.2 3.4 3.8l-1.8 1.2c-.8-1.5-1.8-2.6-3.1-3.3s-2.7-1.1-4.3-1.1c-1.3 0-2.5.3-3.6.9-1.1.6-2 1.3-2.8 2.3s-1.4 2-1.8 3.2c-.4 1.2-.6 2.4-.6 3.7 0 1.4.2 2.6.7 3.9.5 1.2 1.1 2.3 1.9 3.2.8.9 1.8 1.7 2.9 2.2 1.1.5 2.3.8 3.6.8 1.5 0 2.9-.4 4.2-1.1 1.3-.7 2.6-1.9 3.8-3.4v2.5c-2.2 2.7-4.9 4.1-8.1 4.1zm7.8-10.2h-5.4v-1.8h7.4v11.9h-2V26.3zM44.7 20.6c-1.5 0-2.9.5-4.1 1.3-1.2.8-2 1.9-2.5 3.4v11h-2.3V18.7H38v4.2c.6-1.2 1.4-2.3 2.4-3 1-.8 2.1-1.2 3.2-1.3h1v2zM55.6 36.7c-1.3 0-2.4-.2-3.5-.7-1.1-.5-2-1.2-2.8-2-.8-.8-1.4-1.8-1.9-2.9-.4-1.1-.7-2.3-.7-3.6 0-1.6.4-3.1 1.1-4.5.8-1.4 1.8-2.5 3.1-3.3s2.9-1.2 4.6-1.2c1.7 0 3.3.4 4.6 1.2s2.3 1.9 3.1 3.3c.7 1.4 1.1 2.9 1.1 4.5v.9H49.2c.1 1.3.5 2.4 1.1 3.4.6 1 1.4 1.8 2.3 2.3 1 .6 2 .9 3.1.9 1.2 0 2.2-.3 3.3-.9 1-.6 1.8-1.4 2.2-2.3l2 .5c-.4.8-.9 1.6-1.7 2.3-.7.7-1.6 1.2-2.6 1.6-1 .3-2.1.5-3.3.5zm-6.5-10h13.1c-.1-1.3-.4-2.4-1-3.4s-1.4-1.7-2.3-2.3-2-.8-3.2-.8c-1.2 0-2.2.3-3.2.8s-1.7 1.3-2.3 2.3c-.7 1-1 2.1-1.1 3.4zM75.8 36.7c-1.3 0-2.4-.2-3.5-.7-1.1-.5-2-1.2-2.8-2-.8-.8-1.4-1.8-1.9-2.9-.4-1.1-.7-2.3-.7-3.6 0-1.6.4-3.1 1.1-4.5.8-1.4 1.8-2.5 3.1-3.3s2.9-1.2 4.6-1.2c1.7 0 3.3.4 4.6 1.2s2.3 1.9 3.1 3.3c.7 1.4 1.1 2.9 1.1 4.5v.9H69.3c.1 1.3.5 2.4 1.1 3.4.6 1 1.4 1.8 2.3 2.3 1 .6 2 .9 3.1.9 1.2 0 2.2-.3 3.3-.9 1-.6 1.8-1.4 2.2-2.3l2 .5c-.4.8-.9 1.6-1.7 2.3-.7.7-1.6 1.2-2.6 1.6-1 .3-2.1.5-3.2.5zm-6.6-10h13.1c-.1-1.3-.4-2.4-1-3.4S79.9 21.6 79 21s-2-.8-3.2-.8c-1.2 0-2.2.3-3.2.8s-1.7 1.3-2.3 2.3c-.6 1-1 2.1-1.1 3.4zM103.2 36.3h-2.3v-9.8c0-2.1-.3-3.6-.9-4.5-.6-1-1.6-1.4-2.9-1.4-.9 0-1.8.2-2.7.7-.9.4-1.7 1-2.3 1.8-.7.8-1.2 1.6-1.4 2.6v10.8h-2.3V18.7h2.1v4c.5-.9 1.1-1.6 1.9-2.2S94 19.4 95 19c1-.4 2-.5 3-.5s1.8.2 2.5.5c.7.4 1.2.9 1.6 1.5.4.7.7 1.5.9 2.4.2.9.3 2 .3 3.1v10.3z"/>
    <path class="st2" d="M123.1 14.3h-8.6v22h-2.4v-22h-8.6v-2.1h19.6v2.1zM129.7 36.7c-1.3 0-2.5-.2-3.6-.7-1.1-.5-2-1.1-2.8-2-.8-.8-1.4-1.8-1.8-2.9-.4-1.1-.6-2.2-.6-3.5 0-1.3.2-2.4.6-3.5.4-1.1 1-2.1 1.8-2.9.8-.8 1.7-1.5 2.8-2 1.1-.5 2.2-.7 3.5-.7s2.4.2 3.5.7c1.1.5 2 1.1 2.8 2s1.4 1.8 1.8 2.9c.4 1.1.6 2.3.6 3.5 0 1.2-.2 2.4-.6 3.5s-1 2.1-1.8 2.9c-.8.8-1.7 1.5-2.8 2-.9.4-2.1.7-3.4.7zm-6.4-9.1c0 1.3.3 2.5.9 3.6s1.4 1.9 2.3 2.5c1 .6 2.1.9 3.2.9 1.2 0 2.3-.3 3.2-.9 1-.6 1.8-1.5 2.3-2.6.6-1.1.9-2.3.9-3.6 0-1.3-.3-2.5-.9-3.5s-1.4-1.9-2.3-2.6c-1-.6-2.1-.9-3.2-.9-1.2 0-2.3.3-3.2 1-1 .7-1.8 1.5-2.3 2.6s-.9 2.2-.9 3.5zM150.5 36.7c-1.3 0-2.5-.2-3.6-.7-1.1-.5-2-1.1-2.8-2-.8-.8-1.4-1.8-1.8-2.9-.4-1.1-.6-2.2-.6-3.5 0-1.3.2-2.4.6-3.5.4-1.1 1-2.1 1.8-2.9.8-.8 1.7-1.5 2.8-2 1.1-.5 2.2-.7 3.5-.7s2.4.2 3.5.7c1.1.5 2 1.1 2.8 2s1.4 1.8 1.8 2.9c.4 1.1.6 2.3.6 3.5 0 1.2-.2 2.4-.6 3.5s-1 2.1-1.8 2.9c-.8.8-1.7 1.5-2.8 2-.9.4-2.1.7-3.4.7zm-6.4-9.1c0 1.3.3 2.5.9 3.6s1.4 1.9 2.3 2.5c1 .6 2.1.9 3.2.9 1.2 0 2.3-.3 3.2-.9 1-.6 1.8-1.5 2.3-2.6.6-1.1.9-2.3.9-3.6 0-1.3-.3-2.5-.9-3.5s-1.4-1.9-2.3-2.6c-1-.6-2.1-.9-3.2-.9-1.2 0-2.3.3-3.2 1-1 .7-1.8 1.5-2.3 2.6s-.9 2.2-.9 3.5zM163.9 11.5h2.3v20.9c0 .9.2 1.5.5 1.7.3.3.7.4 1.2.4.4 0 .8 0 1.2-.1.4-.1.8-.2 1.1-.3l.4 1.9c-.4.2-1 .3-1.6.4-.6.1-1.2.2-1.6.2-1 0-1.9-.3-2.5-.9-.6-.6-.9-1.5-.9-2.5V11.5zM178.2 36.7c-1.5 0-2.8-.2-4-.7s-2.3-1.2-3.2-2.2l1-1.6c1 .9 2 1.6 3 2 1 .4 2.1.6 3.2.6 1.4 0 2.5-.3 3.4-.8.9-.6 1.3-1.3 1.3-2.4 0-.7-.2-1.2-.6-1.6-.4-.4-1-.7-1.8-.9-.8-.2-1.7-.5-2.8-.8-1.2-.3-2.2-.7-3.1-1.1-.8-.4-1.5-.8-1.9-1.4-.4-.6-.6-1.3-.6-2.2 0-1.1.3-2.1.9-2.9.6-.8 1.4-1.3 2.4-1.7 1-.4 2.1-.6 3.4-.6 1.4 0 2.6.2 3.6.6 1 .4 1.9 1 2.6 1.8l-1.1 1.6c-.6-.7-1.4-1.3-2.3-1.6-.9-.4-1.8-.5-2.9-.5-.7 0-1.4.1-2.1.3-.7.2-1.2.5-1.6.9-.4.4-.6 1-.6 1.8 0 .6.2 1.1.5 1.5.3.3.8.6 1.4.9.6.2 1.4.5 2.3.8 1.3.4 2.5.7 3.5 1.1 1 .4 1.8.9 2.3 1.4s.8 1.4.8 2.5c0 1.6-.6 2.9-1.9 3.9-1.4.8-3.1 1.3-5.1 1.3z"/>
    <path d="m2160.8 12465.8-8.4-7-6.4-7.9-6.4-7.9-43.1-43.2c-23.7-23.7-43.2-43.1-43.3-43.1-.4.1-52 50.2-54.2 52.5-4.6 5.1-7.8 10.3-9.9 16.6-.8 2.4-1.7 5.9-2.9 11.5-2 8.8-3.7 13.3-7 18-1.6 2.4-4.4 5.5-6 6.7-2.9 2.2-7.8 4-13.3 4.9-2.4.4-3.8.5-8.1.5-4.5 0-5.6-.1-7.8-.5-3.9-.7-6.1-1.6-6.4-2.5-.3-1 3.3-3.6 12.8-9.2 6.4-3.8 6.9-4.1 7.3-5.1 1-2.5 1.3-9.6.5-13.1-.7-2.9-1.4-4.4-3.1-6-2.7-2.6-5.9-4.4-9.6-5.2l-1.9-.4-.9.5c-1.2.6-3.3 2-7.3 5-6.8 5-9.9 6.8-11.4 6.7-1.1-.1-1.4-.6-1.2-2.7.4-5.7 6.4-15.7 14.2-23.6 2.6-2.6 4.6-3.9 8.3-5.3 3.7-1.4 7.8-2.2 17-3.4 9-1.2 13.3-2.2 17.5-4.1 3.7-1.7 3.1-1.1 31.8-29.8l26.9-26.9-2.7-2.7-2.7-2.7-3.1 2.7c-2.9 2.5-3.2 2.8-4.7 3.3-.9.3-2.9 1-4.6 1.6l-2.9 1-4.1-4.1-4.1-4.1.2-1.2c.4-2.3-.2-4.9-1.8-7.6-.8-1.3-4.2-4.9-6.5-6.8-4.7-3.8-10.1-6.4-13.1-6.4h-.9l-32.9-32.9c-23.6-23.5-33-33.1-33.3-33.7-1.7-3.7-1.1-10.1 1.3-14.9 2.5-4.9 7.2-10.4 12.1-13.9 2.1-1.5 5.7-3.4 7.8-4.1 4.1-1.3 8.9-1.3 11.8 0 .6.3 10.3 9.8 33.7 33.3l32.9 32.9.1 1.1c.3 2.7 1.6 5.9 3.7 9.1 1.8 2.7 3.2 4.5 6 7.2 2.8 2.8 4.5 3.9 7.1 4.6 1.5.4 3.7.4 4.5.1.6-.2.7-.1 4.7 4l4.1 4.2-1.6 4.6-1.6 4.6-2.1 2.4c-1.1 1.3-2.4 2.7-2.7 3.1l-.6.7 2.6 2.6 2.6 2.6 41.4-41.4c22.8-22.8 41.8-41.9 42.2-42.5 2-2.7 3-4.8 5.9-12 2.4-6.1 3.5-8.5 5.4-11.3 3.2-4.8 7.6-8.2 12.4-9.8 2.5-.8 3.8-1 6.4-1 5 0 9.6 2 13.7 5.9 7.4 7.1 9.2 16.6 4.8 25.6-2.6 5.3-6.6 8.6-14.2 11.6-1.3.5-4.1 1.5-6.2 2.3-6.5 2.3-9.7 3.8-12.3 5.8-1 .7-74.1 71.4-82.6 79.8l-1.9 1.9 42.6 42.6 42.6 42.6 8.6 7 8.7 7 6.9 8.4 6.9 8.4-4.6 4.6c-2.6 2.6-4.7 4.7-4.8 4.6-.3.3-4.2-2.8-8.8-6.7zm-1.6-215.6c.8-.4 1.7-.7 1.8-.7.1 0 1.1.4 2 .8s1.9.8 1.9.8c.1 0 .8-.8 1.5-1.8l1.4-1.8 2-.1c1.1-.1 2.1-.2 2.3-.3.1-.1.3-1 .3-2 .1-1 .2-2 .2-2.2.1-.2.9-.9 1.8-1.6 1-.7 1.7-1.3 1.7-1.4 0-.1-.4-1-.8-2-.5-1-.8-1.9-.8-2 0-.1.4-1 .8-2 .5-1 .8-1.9.8-2 0-.1-.8-.8-1.7-1.5-1-.7-1.7-1.3-1.8-1.3 0-.1-.1-1.1-.2-2.3l-.2-2.1-2.2-.2c-1.2-.1-2.3-.3-2.4-.4-.1-.1-.7-.9-1.3-1.7-.6-.9-1.2-1.6-1.4-1.6-.1 0-1 .4-2 .8-2.1.9-1.9.9-4.4-.2l-1.7-.8-1.3 1.8c-1.4 2-1.1 1.8-4.4 2.2l-1.4.1-.2 2.1c-.1 1.2-.2 2.2-.2 2.3 0 .1-.8.7-1.8 1.3-.9.7-1.7 1.4-1.7 1.5 0 .1.4 1.1.8 2 .5 1 .8 1.9.8 2 0 .1-.4 1-.8 2s-.8 2-.7 2.1c0 .1.8.8 1.7 1.4 1.8 1.3 1.8 1.2 2 3.9.1.9.2 1.7.3 1.8.1.1 1.1.2 2.3.3l2 .1.8 1.1c1.8 2.5 1.8 2.5 2.3 2.4.2-.1 1.1-.4 1.9-.8z" style="fill:#0d3c65" transform="matrix(.1 0 0 -.1 0 1262)"/>
</svg>
